<svg id="Layer_1" xmlns="http://www.w3.org/2000/svg" viewBox="0 0 753.9 41.6"><style>.st0{fill:#fff}</style><path class="st0" d="M753.5 1h-24.7v39.7h25.1v-7h-16.3v-9.9h15V17h-15V8h15.9V1zM702 40.6h10.1l-11.4-23.9L711 1h-10l-10.2 17.2V1H682v39.7h8.8V28.1l3.2-5.2 8 17.7zM649.9 7.9c.7 5.1 1.8 10.3 3.7 17.5H646c1.8-7.2 3-12.4 3.7-17.5h.2zm7.5 32.7h8.6L654.9 1h-10.3l-11.1 39.7h8.6l2.2-8.6h10.9l2.2 8.5zM593 1v39.7h25.7v-7.3h-16.8V1H593zm-39.1 6.4h4.6c3.9 0 6 2 6 5.8 0 3.7-2.1 5.7-6 5.7h-4.6V7.4zm11.5 33.2h9.6l-8-17.5c4.2-1.8 6.7-5.4 6.7-10 0-7.7-5.1-12.2-14-12.2h-14.5v39.7h8.8V24.7h4.7l6.7 15.9zM526.6 1h-24.7v39.7H527v-7h-16.3v-9.9h15V17h-15V8h15.9V1zm-63.2 22.2h5.3c3.9 0 5.6 2.3 5.6 5.4 0 2.9-1.5 5.7-5.8 5.7h-5.1V23.2zm0-15.9h4.5c4.5 0 5.5 2.6 5.5 5.1 0 2.3-.8 5.1-5.5 5.1h-4.5V7.3zm5.9-6.3h-14.8v39.7H470c10.1 0 13.4-6 13.4-11.2 0-5.3-3-8.7-8.2-9.5 5.1-1.2 7.3-4.7 7.3-8.4-.1-4.8-2.8-10.6-13.2-10.6m-42.8 17.4c.4-2.2.8-5.3 1.1-7.4h.4c-.2 4-.4 9-.4 11.9v17.8h7.5V1h-9.9l-2.9 14.7c-.4 2.2-.8 5.1-.8 6.9h-.5c-.1-1.7-.4-4.6-.8-6.9L417.3 1h-9.9v39.7h7.5V22.8c0-2.9-.2-7.9-.4-11.9h.4c.3 2.1.7 5.2 1.1 7.4l2.2 12.4h6l2.3-12.3zM388.6 7.7V1h-25.7v6.7h8.4V34h-8.4v6.7h25.7V34h-8.5V7.7h8.5zM316.7 1v7.3h10.7v32.4h8.8V8.3h10.7V1h-30.2zm-72.2 21.2L235.7 1h-9.4v39.7h7.8v-22c0-1.8-.2-4.3-.5-5.9h.4c.3 1.2.9 3.8 1.7 5.8l9.5 22h8.9V1h-7.8v20.6c0 1.8.2 4.9.5 6.7h-.3c-.4-1.5-1.2-4-2-6.1M207.4 7.7V1h-25.7v6.7h8.4V34h-8.4v6.7h25.7V34h-8.5V7.7h8.5zM135.6 1v7.3h10.7v32.4h8.8V8.3h10.7V1h-30.2zM107 41.6c9.5 0 15.1-5.8 15.1-12.6 0-7-4.5-9.9-10.3-11.5l-5.4-1.6c-3.1-.9-4.8-2.4-4.8-4.8 0-2 1.3-4 5.3-4 3.1 0 6.3 1.5 8.3 6.1l6.7-4.8C119.5 3 114.2 0 107.1 0c-8.4 0-14.3 4.9-14.3 12.2 0 5.9 4 9.5 10.1 11.2l5.3 1.5c3.1.8 4.9 1.8 4.9 5.1 0 3.2-3.1 4.3-5.7 4.3-4.7 0-7.4-2.6-8.9-6.8L91.2 31c2.7 7.2 8.6 10.6 15.8 10.6M46.8 1v27.1c0 8.4 5.4 13.5 14.5 13.5 9 0 14.1-5.1 14.1-13.5V1h-8.9v27c0 3.9-1.7 6.4-5.3 6.4-3.6 0-5.5-2.5-5.5-6.4V1h-8.9zM27.3 28.6V1h-8.8v27.2c0 3.7-1.4 6.2-4.5 6.2s-5.1-2.3-5.3-8.9L0 27.8c.5 8.5 4.9 13.8 13.6 13.8 7.9 0 13.7-4 13.7-13"/></svg>