<svg id="Layer_1" xmlns="http://www.w3.org/2000/svg" viewBox="0 0 74.3 66.5"><style>.st0{fill:#fff}</style><path class="st0" d="M9.8 14.2c-.7 1-1.3 2-1.9 3-.4.7-1.5.4-1.5-.4V9.9c0-.8 1.1-1.1 1.5-.4l1.9 3.8c.2.3.2.6 0 .9M6.5 56.5v-6.9c0-.8 1.1-1.1 1.5-.4.6 1 1.2 2.1 1.9 3 .1.2.1.5 0 .8L8 56.8c-.4.7-1.5.5-1.5-.3m27.4 7c-8.2-.9-15.4-5-20.4-11.1-.2-.2-.2-.6-.1-.9l7.2-14.2c.3-.6 1.1-.6 1.4 0l12.6 25c.4.6-.1 1.3-.7 1.2M61 52.2c-4.8 6-11.9 10.2-19.9 11.2-.6.1-1.1-.6-.8-1.1l12.4-24.8c.3-.6 1.1-.6 1.4 0l7 13.9c.1.3.1.6-.1.8m5.6 4.5l-2-3.9c-.1-.3-.1-.6.1-.8.7-1 1.3-2.1 1.9-3.2.4-.7 1.5-.4 1.5.4v7.2c0 .8-1.2 1.1-1.5.3m-4.7-45.8c-2.5-2.7-5.4-5.1-8.6-6.9-.7-.4-.4-1.5.4-1.5H66c.6 0 1 .6.7 1.1l-3.5 7c-.3.6-.9.7-1.3.3m-26-.4v45.3c0 .8-1.1 1.1-1.5.4L23 33.5c-.1-.2-.1-.5 0-.7l11.5-22.6c.3-.8 1.4-.5 1.4.3m4-1.5l11.9 23.8c.1.2.1.5 0 .7L39.9 57.3c-.4.7-1.5.5-1.5-.3V9.4c0-.8 1.2-1.1 1.5-.4m21.2 6l-7 13.9c-.3.6-1.1.6-1.4 0L40.3 4.1c-.3-.6.2-1.2.8-1.1 8 1 15 5.2 19.9 11.2.2.2.2.5.1.8m5.5 2.6c-.6-1.1-1.2-2.1-1.9-3.2-.2-.2-.2-.5-.1-.8l2-3.9c.4-.7 1.5-.5 1.5.3v7.1c0 .9-1.1 1.2-1.5.5m-2.9.6c2.5 4.4 4 9.6 4 15 0 5.5-1.4 10.6-4 15-.3.5-1.1.5-1.4 0L55 33.5c-.1-.2-.1-.5 0-.7l7.3-14.6c.3-.6 1.1-.6 1.4 0m-44 14.6c.1.2.1.5 0 .7l-7.6 14.9c-.3.6-1.1.6-1.4 0-2.5-4.4-4-9.6-4-15.2s1.5-10.8 4.1-15.3c.3-.5 1.1-.5 1.4 0l7.5 14.9zm.9-3.8l-7.2-14.2c-.1-.3-.1-.6.1-.9 5-6 12.2-10.2 20.4-11 .6-.1 1.1.5.8 1.1L22 29c-.2.5-1.1.5-1.4 0M8.6 2.6h12.1c.8 0 1.1 1.1.4 1.5-3.2 1.8-6.1 4-8.5 6.7-.4.4-1 .3-1.3-.2L7.9 3.7c-.3-.5.1-1.1.7-1.1m-7.8 0h2.4c.4 0 .8.4.8.8V31c0 .7-.1 1.4-.1 2.1s0 1.4.1 2.1v30.3c0 .4.4.8.8.8h1c.4 0 .8-.4.8-.8 0-.1 0-.2.1-.4l4.8-9.4c.2-.5.9-.6 1.3-.2 6.1 6.7 14.8 10.8 24.6 10.8S56 62 62.1 55.3c.4-.4 1-.3 1.3.2l4.8 9.6c.1.1.1.2.1.4 0 .4.4.8.8.8h1c.4 0 .8-.4.8-.8V3.3c0-.4.4-.8.8-.8h2.2c.4 0 .8-.4.8-.8v-1C74.3.4 74 0 73.6 0H.8C.4 0 0 .4 0 .8v1c0 .4.4.8.8.8"/></svg>